<svg width="689" height="340" viewBox="0 0 689 340" fill="none" xmlns="http://www.w3.org/2000/svg">
<g clip-path="url(#clip0_219_1014)">
<path d="M19.2666 299.378C19.2666 292.205 24.3299 286.391 30.5768 286.391C36.8237 286.391 41.8212 292.205 41.887 299.378" fill="#F5F6FA"/>
<path d="M30.5769 299.378C30.3797 299.378 30.2481 299.227 30.2481 299.001V292.205C30.2481 291.979 30.3797 291.828 30.5769 291.828C30.7742 291.828 30.9057 291.979 30.9057 292.205V299.001C30.8399 299.227 30.7084 299.378 30.5769 299.378Z" fill="#000022"/>
<path d="M30.5771 297.038C30.5113 297.038 30.4456 297.038 30.3798 296.962L26.6974 293.338C26.5659 293.187 26.5659 292.961 26.6317 292.81C26.7632 292.659 26.9605 292.659 27.092 292.734L30.7744 296.358C30.9059 296.509 30.9059 296.736 30.7744 296.887C30.7086 296.962 30.6429 297.038 30.5771 297.038Z" fill="#000022"/>
<path d="M54.0522 299.378C54.0522 292.205 59.1155 286.392 65.3624 286.467C71.6093 286.467 76.6068 292.281 76.6068 299.378" fill="#F5F6FA"/>
<path d="M65.3625 299.378C65.1653 299.378 65.0338 299.227 65.0338 299.001V292.205C65.0338 291.979 65.1653 291.828 65.3625 291.828C65.5598 291.828 65.6913 291.979 65.6913 292.205V299.001C65.6256 299.227 65.4941 299.378 65.3625 299.378Z" fill="#000022"/>
<path d="M65.3621 297.038C65.2963 297.038 65.2306 297.038 65.1648 296.962L61.4824 293.338C61.3509 293.187 61.3509 292.961 61.4167 292.81C61.5482 292.659 61.7454 292.659 61.877 292.734L65.5593 296.358C65.6909 296.509 65.6909 296.736 65.5593 296.887C65.4936 296.962 65.4278 297.038 65.3621 297.038Z" fill="#000022"/>
<path d="M516.06 50.815C528.044 50.815 537.759 39.6594 537.759 25.8983C537.759 12.1372 528.044 0.981567 516.06 0.981567C504.075 0.981567 494.36 12.1372 494.36 25.8983C494.36 39.6594 504.075 50.815 516.06 50.815Z" fill="#F5F6FA"/>
<path d="M71.5434 326.409C82.4383 326.409 91.2704 324.043 91.2704 321.124C91.2704 318.205 82.4383 315.838 71.5434 315.838C60.6484 315.838 51.8163 318.205 51.8163 321.124C51.8163 324.043 60.6484 326.409 71.5434 326.409Z" fill="#F5F6FA"/>
<path d="M61.4826 104.197C66.6774 85.623 79.3027 71.277 94.2952 62.6694C112.05 52.5517 132.5 51.3436 151.767 55.3454C172.612 59.5737 192.076 69.4649 210.948 80.1866C229.426 90.6819 247.64 101.857 266.841 110.54C305.243 127.906 345.947 137.571 387.11 139.156C424.197 140.591 463.914 135.909 495.675 111.974C524.805 90.0023 543.283 53.8353 552.949 16.0827C554.198 11.2504 555.251 6.34252 556.237 1.43468C556.5 8.11648e-05 554.593 -0.603961 554.33 0.830639C546.571 40.2444 529.934 79.2051 501.593 104.273C470.95 131.455 430.641 137.722 393.029 136.967C351.339 136.136 310.109 127 271.181 109.936C251.454 101.328 232.845 90.1533 213.973 79.2806C195.561 68.7098 176.557 58.8187 156.304 53.9108C137.826 49.456 117.968 49.154 100.148 57.082C85.4838 63.5755 72.0694 75.2033 64.2444 91.1349C62.3374 95.0612 60.7593 99.1384 59.5756 103.442C59.1811 104.952 61.0881 105.556 61.4826 104.197Z" fill="#F5F6FA"/>
<path d="M343.119 277.633C343.514 277.633 343.777 277.331 343.777 276.878C343.777 276.425 343.514 276.123 343.119 276.123H336.872V273.102H343.119C343.514 273.102 343.777 272.8 343.777 272.347C343.777 271.894 343.514 271.592 343.119 271.592H289.856C289.461 271.592 289.198 271.894 289.198 272.347C289.198 272.8 289.461 273.102 289.856 273.102H296.103V276.123H289.856C289.461 276.123 289.198 276.425 289.198 276.878C289.198 277.331 289.461 277.633 289.856 277.633H296.103V280.653H289.856C289.461 280.653 289.198 280.955 289.198 281.408C289.198 281.861 289.461 282.163 289.856 282.163H296.103V285.183H290.514C289.79 285.183 289.198 285.863 289.198 286.693C289.198 287.524 289.79 288.203 290.514 288.203H295.84C295.774 288.354 295.774 288.43 295.774 288.581V299.152C295.774 299.756 296.234 300.284 296.76 300.284C297.287 300.284 297.747 299.756 297.747 299.152V288.581C297.747 288.43 297.747 288.354 297.681 288.203H335.294C335.228 288.354 335.228 288.43 335.228 288.581V299.152C335.228 299.756 335.689 300.284 336.215 300.284C336.741 300.284 337.201 299.756 337.201 299.152V288.581C337.201 288.43 337.201 288.354 337.135 288.203H342.461C343.185 288.203 343.777 287.524 343.777 286.693C343.777 285.863 343.185 285.183 342.461 285.183H336.872V282.163H343.119C343.514 282.163 343.777 281.861 343.777 281.408C343.777 280.955 343.514 280.653 343.119 280.653H336.872V277.633H343.119ZM297.418 273.102H335.557V276.123H297.418V273.102ZM335.557 285.183H297.418V282.163H335.557V285.183ZM335.557 280.653H297.418V277.633H335.557V280.653Z" fill="#403D56"/>
<path d="M124.149 245.92C124.149 232.556 114.746 200.919 103.107 200.919C91.4676 200.919 82.0644 232.556 82.0644 245.92C82.0644 259.285 91.4676 270.082 103.107 270.082C114.746 270.082 124.149 259.285 124.149 245.92Z" fill="#F5F6FA"/>
<path d="M103.764 299.982C103.37 299.982 103.107 299.68 103.107 299.227V231.952C103.107 231.499 103.37 231.197 103.764 231.197C104.159 231.197 104.422 231.499 104.422 231.952V299.227C104.422 299.605 104.093 299.982 103.764 299.982Z" fill="#000022"/>
<path d="M103.764 242.9C103.37 242.9 103.107 242.598 103.107 242.145C103.107 241.918 103.172 241.767 103.304 241.616L111.918 231.725C112.181 231.423 112.576 231.423 112.839 231.725C113.102 232.027 113.102 232.48 112.839 232.782L104.224 242.673C104.093 242.824 103.961 242.9 103.764 242.9Z" fill="#000022"/>
<path d="M399.67 245.92C399.67 232.556 390.267 200.919 378.628 200.919C366.989 200.919 357.585 232.556 357.585 245.92C357.585 259.285 366.989 270.082 378.628 270.082C390.267 270.082 399.67 259.285 399.67 245.92Z" fill="#F5F6FA"/>
<path d="M379.285 299.982C378.891 299.982 378.628 299.68 378.628 299.227V231.952C378.628 231.499 378.891 231.197 379.285 231.197C379.68 231.197 379.943 231.499 379.943 231.952V299.227C379.943 299.605 379.614 299.982 379.285 299.982Z" fill="#000022"/>
<path d="M379.285 242.9C378.891 242.9 378.628 242.598 378.628 242.145C378.628 241.918 378.693 241.767 378.825 241.616L387.439 231.725C387.702 231.423 388.097 231.423 388.36 231.725C388.623 232.027 388.623 232.48 388.36 232.782L379.745 242.673C379.614 242.824 379.482 242.9 379.285 242.9Z" fill="#000022"/>
<path d="M186.618 39.1117H176.097C174.453 39.1117 173.138 37.6016 173.138 35.714V7.77704C173.138 5.88941 174.453 4.3793 176.097 4.3793H186.618C188.262 4.3793 189.577 5.88941 189.577 7.77704V35.714C189.577 37.6016 188.262 39.1117 186.618 39.1117Z" fill="#E6E8F0"/>
<path d="M228.045 299.605H174.124C171.033 299.605 168.535 296.735 168.535 293.187V43.2645C168.535 39.7157 171.033 36.8465 174.124 36.8465H228.045C231.135 36.8465 233.634 39.7157 233.634 43.2645V293.187C233.634 296.735 231.135 299.605 228.045 299.605Z" fill="#E6E8F0"/>
<path d="M195.824 299.605H141.903C138.813 299.605 136.314 296.735 136.314 293.187V43.2645C136.314 39.7157 138.813 36.8465 141.903 36.8465H195.824C198.914 36.8465 201.413 39.7157 201.413 43.2645V293.187C201.413 296.735 198.914 299.605 195.824 299.605Z" fill="#F5F6FA"/>
<path d="M176.754 39.1117H166.233C164.589 39.1117 163.274 37.6016 163.274 35.714V7.77704C163.274 5.88941 164.589 4.3793 166.233 4.3793H176.754C178.398 4.3793 179.713 5.88941 179.713 7.77704V35.714C179.713 37.6016 178.398 39.1117 176.754 39.1117Z" fill="#F5F6FA"/>
<path d="M162.945 93.4755H150.452C149.531 93.4755 148.808 92.6449 148.808 91.5878V69.6913C148.808 68.6342 149.531 67.8037 150.452 67.8037H162.945C163.866 67.8037 164.589 68.6342 164.589 69.6913V91.5878C164.589 92.6449 163.866 93.4755 162.945 93.4755Z" fill="white"/>
<path d="M187.275 93.4755H174.782C173.861 93.4755 173.138 92.6449 173.138 91.5878V69.6913C173.138 68.6342 173.861 67.8037 174.782 67.8037H187.275C188.196 67.8037 188.919 68.6342 188.919 69.6913V91.5878C188.919 92.6449 188.196 93.4755 187.275 93.4755Z" fill="white"/>
<path d="M162.945 133.493H150.452C149.531 133.493 148.808 132.663 148.808 131.606V109.709C148.808 108.652 149.531 107.821 150.452 107.821H162.945C163.866 107.821 164.589 108.652 164.589 109.709V131.606C164.589 132.663 163.866 133.493 162.945 133.493Z" fill="white"/>
<path d="M187.275 133.493H174.782C173.861 133.493 173.138 132.663 173.138 131.606V109.709C173.138 108.652 173.861 107.821 174.782 107.821H187.275C188.196 107.821 188.919 108.652 188.919 109.709V131.606C188.919 132.663 188.196 133.493 187.275 133.493Z" fill="white"/>
<path d="M162.945 173.511H150.452C149.531 173.511 148.808 172.68 148.808 171.623V149.727C148.808 148.67 149.531 147.839 150.452 147.839H162.945C163.866 147.839 164.589 148.67 164.589 149.727V171.623C164.589 172.68 163.866 173.511 162.945 173.511Z" fill="white"/>
<path d="M187.275 173.511H174.782C173.861 173.511 173.138 172.68 173.138 171.623V149.727C173.138 148.67 173.861 147.839 174.782 147.839H187.275C188.196 147.839 188.919 148.67 188.919 149.727V171.623C188.919 172.68 188.196 173.511 187.275 173.511Z" fill="white"/>
<path d="M162.945 213.529H150.452C149.531 213.529 148.808 212.698 148.808 211.641V189.745C148.808 188.688 149.531 187.857 150.452 187.857H162.945C163.866 187.857 164.589 188.688 164.589 189.745V211.641C164.589 212.698 163.866 213.529 162.945 213.529Z" fill="white"/>
<path d="M187.275 213.529H174.782C173.861 213.529 173.138 212.698 173.138 211.641V189.745C173.138 188.688 173.861 187.857 174.782 187.857H187.275C188.196 187.857 188.919 188.688 188.919 189.745V211.641C188.919 212.698 188.196 213.529 187.275 213.529Z" fill="white"/>
<path d="M162.945 253.546H150.452C149.531 253.546 148.808 252.716 148.808 251.659V229.762C148.808 228.705 149.531 227.875 150.452 227.875H162.945C163.866 227.875 164.589 228.705 164.589 229.762V251.659C164.589 252.716 163.866 253.546 162.945 253.546Z" fill="white"/>
<path d="M187.275 253.546H174.782C173.861 253.546 173.138 252.716 173.138 251.659V229.762C173.138 228.705 173.861 227.875 174.782 227.875H187.275C188.196 227.875 188.919 228.705 188.919 229.762V251.659C188.919 252.716 188.196 253.546 187.275 253.546Z" fill="white"/>
<path d="M458.194 171.246H447.672C446.029 171.246 444.713 169.736 444.713 167.848V151.992C444.713 150.104 446.029 148.594 447.672 148.594H458.194C459.837 148.594 461.153 150.104 461.153 151.992V167.848C461.153 169.736 459.837 171.246 458.194 171.246Z" fill="#E6E8F0"/>
<path d="M546.965 300.36H493.045C489.954 300.36 487.455 297.491 487.455 293.942V173.889C487.455 170.34 489.954 167.471 493.045 167.471H546.965C550.056 167.471 552.555 170.34 552.555 173.889V293.942C552.555 297.491 550.056 300.36 546.965 300.36Z" fill="#E6E8F0"/>
<path d="M514.744 300.36H421.37C418.279 300.36 415.78 297.491 415.78 293.942V173.889C415.78 170.34 418.279 167.471 421.37 167.471H514.744C517.835 167.471 520.334 170.34 520.334 173.889V293.942C520.334 297.491 517.835 300.36 514.744 300.36Z" fill="#F5F6FA"/>
<path d="M448.33 171.246H437.809C436.165 171.246 434.85 169.736 434.85 167.848V151.992C434.85 150.104 436.165 148.594 437.809 148.594H448.33C449.974 148.594 451.289 150.104 451.289 151.992V167.848C451.289 169.736 449.974 171.246 448.33 171.246Z" fill="#F5F6FA"/>
<path d="M462.139 226.742H449.645C448.725 226.742 448.001 225.912 448.001 224.855V202.958C448.001 201.901 448.725 201.07 449.645 201.07H462.139C463.06 201.07 463.783 201.901 463.783 202.958V224.855C463.783 225.912 463.06 226.742 462.139 226.742Z" fill="white"/>
<path d="M486.469 226.742H473.975C473.055 226.742 472.331 225.912 472.331 224.855V202.958C472.331 201.901 473.055 201.07 473.975 201.07H486.469C487.389 201.07 488.113 201.901 488.113 202.958V224.855C488.113 225.912 487.389 226.742 486.469 226.742Z" fill="white"/>
<path d="M462.139 266.76H449.645C448.725 266.76 448.001 265.929 448.001 264.872V242.976C448.001 241.919 448.725 241.088 449.645 241.088H462.139C463.06 241.088 463.783 241.919 463.783 242.976V264.872C463.783 265.929 463.06 266.76 462.139 266.76Z" fill="white"/>
<path d="M486.469 266.76H473.975C473.055 266.76 472.331 265.929 472.331 264.872V242.976C472.331 241.919 473.055 241.088 473.975 241.088H486.469C487.389 241.088 488.113 241.919 488.113 242.976V264.872C488.113 265.929 487.389 266.76 486.469 266.76Z" fill="white"/>
<path d="M688.342 300.737H0.657568C0.263027 300.737 0 300.435 0 299.982C0 299.529 0.263027 299.227 0.657568 299.227H688.342C688.737 299.227 689 299.529 689 299.982C689 300.435 688.671 300.737 688.342 300.737Z" fill="#000022"/>
<path d="M238.566 327.164H177.412C177.017 327.164 176.754 326.862 176.754 326.409C176.754 325.956 177.017 325.654 177.412 325.654H238.566C238.96 325.654 239.223 325.956 239.223 326.409C239.223 326.862 238.894 327.164 238.566 327.164Z" fill="#F5F6FA"/>
<path d="M390.464 327.164H329.31C328.916 327.164 328.653 326.862 328.653 326.409C328.653 325.956 328.916 325.654 329.31 325.654H390.464C390.859 325.654 391.122 325.956 391.122 326.409C391.122 326.862 390.793 327.164 390.464 327.164Z" fill="#F5F6FA"/>
<path d="M542.362 327.164H481.208C480.814 327.164 480.551 326.862 480.551 326.409C480.551 325.956 480.814 325.654 481.208 325.654H542.362C542.757 325.654 543.02 325.956 543.02 326.409C543.02 326.862 542.691 327.164 542.362 327.164Z" fill="#F5F6FA"/>
<path d="M281.308 245.92C281.308 232.556 271.904 200.919 260.265 200.919C248.626 200.919 239.223 232.556 239.223 245.92C239.223 259.285 248.626 270.082 260.265 270.082C271.904 270.082 281.308 259.285 281.308 245.92Z" fill="#F5F6FA"/>
<path d="M260.923 299.982C260.528 299.982 260.265 299.68 260.265 299.227V231.952C260.265 231.499 260.528 231.197 260.923 231.197C261.317 231.197 261.58 231.499 261.58 231.952V299.227C261.58 299.605 261.252 299.982 260.923 299.982Z" fill="#000022"/>
<path d="M260.923 242.9C260.528 242.9 260.265 242.598 260.265 242.145C260.265 241.918 260.331 241.767 260.463 241.616L269.077 231.725C269.34 231.423 269.734 231.423 269.997 231.725C270.26 232.027 270.26 232.48 269.997 232.782L261.383 242.673C261.252 242.824 261.12 242.9 260.923 242.9Z" fill="#000022"/>
<path d="M604.174 245.92C604.174 232.556 594.77 200.919 583.131 200.919C571.492 200.919 562.089 232.556 562.089 245.92C562.089 259.285 571.492 270.082 583.131 270.082C594.77 270.082 604.174 259.285 604.174 245.92Z" fill="#F5F6FA"/>
<path d="M583.789 299.982C583.394 299.982 583.131 299.68 583.131 299.227V231.952C583.131 231.499 583.394 231.197 583.789 231.197C584.184 231.197 584.447 231.499 584.447 231.952V299.227C584.447 299.605 584.118 299.982 583.789 299.982Z" fill="#000022"/>
<path d="M583.789 242.9C583.394 242.9 583.131 242.598 583.131 242.145C583.131 241.919 583.197 241.768 583.329 241.617L591.943 231.726C592.206 231.424 592.6 231.424 592.864 231.726C593.127 232.028 593.127 232.481 592.864 232.783L584.249 242.674C584.118 242.825 583.986 242.9 583.789 242.9Z" fill="#000022"/>
<path d="M55.7618 269.931H48.9231V267.515C51.0931 265.778 53 265.929 55.4988 267.666L55.7618 269.931Z" fill="#575DA6"/>
<path d="M47.345 312.214H45.8326L45.6353 305.645H47.345V312.214Z" fill="#F5B5B7"/>
<path d="M47.7394 313.875H42.9392V313.8C42.9392 312.592 43.794 311.61 44.8461 311.61H47.8052L47.7394 313.875Z" fill="#2F2F41"/>
<path d="M55.7618 312.214H57.2742L57.4715 305.645H55.7618V312.214Z" fill="#F5B5B7"/>
<path d="M55.3672 311.686H58.3263C59.3784 311.686 60.2333 312.667 60.2333 313.875V313.951H55.433L55.3672 311.686Z" fill="#2F2F41"/>
<path d="M55.8275 311.384C55.5645 311.384 55.3672 311.157 55.3014 310.855L51.6191 292.281C51.6191 292.205 51.5533 292.13 51.4218 292.13C51.356 292.13 51.2903 292.205 51.2245 292.281L47.8052 310.704C47.7394 311.006 47.5421 311.233 47.2791 311.233H45.6352C45.3064 311.233 45.1091 310.931 45.1091 310.628L46.2928 287.297L46.7531 287.146L56.2878 287.222L58.3263 310.553C58.3263 310.93 58.129 311.233 57.866 311.233L55.8275 311.384Z" fill="#2F2F41"/>
<path d="M51.8821 265.703C53.5527 265.703 54.9069 264.148 54.9069 262.23C54.9069 260.311 53.5527 258.756 51.8821 258.756C50.2116 258.756 48.8573 260.311 48.8573 262.23C48.8573 264.148 50.2116 265.703 51.8821 265.703Z" fill="#F5B5B7"/>
<path d="M50.041 289.789C49.5149 289.789 48.9889 289.714 48.4628 289.563C47.5422 289.261 46.8189 288.505 46.3586 287.524C46.2928 287.373 46.2928 287.222 46.2928 287.071C46.6216 285.787 48.1998 279.067 47.2134 273.706C46.9504 272.196 47.1477 270.611 47.9368 269.327C48.6601 268.044 49.778 267.137 51.0931 266.911C51.2904 266.835 51.4219 266.835 51.6191 266.835C53.0658 266.609 54.5125 267.213 55.5646 268.346C56.6167 269.478 57.2085 271.139 57.1427 272.876L56.3536 287.297C56.3536 287.524 56.2221 287.75 56.0906 287.826C55.17 288.279 52.474 289.789 50.041 289.789Z" fill="#403D56"/>
<path d="M55.2357 259.738C54.5781 257.85 52.9342 256.793 51.2245 257.171L52.1451 258.077C50.9615 258.152 49.7121 258.001 48.923 258.983C49.1861 258.983 49.5148 259.663 49.7779 259.587C49.2518 259.663 48.7915 259.965 48.5943 260.493C48.397 261.022 48.3312 261.626 48.4627 262.154C48.7915 262.985 49.1203 263.815 49.5149 264.57C49.4491 263.211 51.8163 259.965 53 260.267C52.4081 260.493 51.8821 260.946 51.5533 261.55C52.3424 261.097 53.1972 260.946 54.0521 261.097C54.2493 261.173 54.4466 261.173 54.6439 261.173C55.0384 261.097 55.3014 260.644 55.2357 260.191C55.2357 260.04 55.1699 259.965 55.1042 259.814L55.2357 259.738Z" fill="#2F2F41"/>
<path d="M49.8437 288.959C49.778 288.959 49.7122 288.959 49.6464 288.883L43.9914 286.014C43.7283 285.863 43.5968 285.561 43.6626 285.259L47.4107 268.95C47.6737 267.666 48.8574 266.911 49.9095 267.289C49.9095 267.289 49.9095 267.289 49.9752 267.289L51.4876 267.817L50.4355 288.355C50.4355 288.581 50.304 288.732 50.1725 288.883C50.041 288.883 49.9095 288.959 49.8437 288.959Z" fill="#1F64FF"/>
<path d="M60.3648 285.334L60.1018 284.277L59.7072 282.692L59.5099 281.936L59.1154 280.351L56.4851 269.025C56.2221 267.741 55.1042 266.986 53.9864 267.364C53.9864 267.364 53.9864 267.364 53.9206 267.364L52.4082 267.893L53.1315 282.314L53.1973 283.824L53.263 284.806L53.3288 286.316L53.4603 288.43C53.4603 288.732 53.7233 289.034 53.9864 289.034C54.0521 289.034 54.1179 289.034 54.1836 288.958L59.8387 286.089C60.299 285.938 60.4305 285.636 60.3648 285.334Z" fill="#1F64FF"/>
<path d="M59.5757 281.861L53.3288 283.749L53.263 282.238L59.1811 280.351L59.5757 281.861Z" fill="#F5F6FA"/>
<path d="M60.1018 284.202L53.4603 286.24L53.3946 284.73L59.7072 282.616L60.1018 284.202Z" fill="#F5F6FA"/>
<path d="M50.6327 282.616L50.5012 284.051L44.4516 282.012L44.7804 280.426L50.6327 282.616Z" fill="#F5F6FA"/>
<path d="M50.5012 285.032L44.2543 282.767L43.9255 284.277L50.4355 286.542L50.5012 285.032Z" fill="#F5F6FA"/>
<path d="M44.3859 286.618C45.1092 286.391 45.5037 285.561 45.3065 284.806C45.3065 284.73 45.2407 284.655 45.2407 284.579L48.134 274.009L46.0298 273.48L43.3995 283.824C42.742 284.202 42.5447 285.108 42.8735 285.863C43.1365 286.467 43.7941 286.769 44.3859 286.618Z" fill="#F5B5B7"/>
<path d="M48.2655 268.799C48.8573 268.874 49.1861 269.629 49.0546 270.611L48.3313 275.217C48.2655 275.594 48.0025 275.821 47.8052 275.745L45.3722 275.066C45.175 274.99 45.1092 274.688 45.2407 274.386L46.6874 270.233C46.8846 269.403 47.5422 268.874 48.2655 268.799Z" fill="#403D56"/>
<path d="M51.8822 255.812C53.9864 255.812 55.6961 257.699 55.7618 260.115H56.4852C56.6167 260.115 56.7482 260.266 56.7482 260.417V261.55C56.7482 261.701 56.6167 261.852 56.4852 261.852H48.1998C48.0683 261.852 47.9368 261.701 47.9368 261.55V260.266C47.9368 257.85 49.7122 255.812 51.8822 255.812Z" fill="#1F64FF"/>
<path d="M52.3425 283.522H50.6328C50.5013 283.522 50.4355 283.447 50.4355 283.296L50.1067 279.218H52.9343L52.6055 283.296C52.5397 283.447 52.4082 283.522 52.3425 283.522Z" fill="#F5F6FA"/>
<path d="M52.8685 279.747H50.0409C49.9094 279.747 49.8437 279.596 49.8437 279.52V278.916C49.8437 278.765 49.9752 278.69 50.0409 278.69H52.8685C53 278.69 53.0657 278.841 53.0657 278.916V279.52C53.1315 279.596 53 279.747 52.8685 279.747Z" fill="#E1E2E9"/>
<path d="M51.4876 281.332C51.5534 281.332 51.6191 281.332 51.6849 281.408L56.2879 276.878L56.0248 275.217L58.1291 274.461L58.8524 277.331C58.9839 277.784 58.7866 278.312 58.4578 278.614L52.6712 282.843C52.6712 283.673 52.1452 284.353 51.4219 284.353C50.6985 284.353 50.1067 283.749 50.1067 282.918C50.1067 282.088 50.6328 281.408 51.3561 281.408C51.4219 281.332 51.4219 281.332 51.4876 281.332Z" fill="#F5B5B7"/>
<path d="M56.2878 269.176C56.9454 268.95 57.5372 269.554 57.8002 270.46L58.8523 274.99C58.9181 275.368 58.7866 275.67 58.5235 275.745L55.8275 276.198C55.6302 276.198 55.433 275.972 55.433 275.67L55.3015 271.215C55.1699 270.309 55.6302 269.478 56.2878 269.176Z" fill="#403D56"/>
<path d="M87.1936 281.484H85.1551C85.0236 281.484 84.8921 281.333 84.8921 281.182L84.4975 276.274H87.9169L87.5223 281.182C87.4566 281.333 87.3251 281.484 87.1936 281.484Z" fill="#F5F6FA"/>
<path d="M87.9168 276.878H84.4975C84.3659 276.878 84.2344 276.727 84.2344 276.576V275.821C84.2344 275.67 84.3659 275.519 84.4975 275.519H87.9168C88.0483 275.519 88.1798 275.67 88.1798 275.821V276.576C88.1798 276.802 88.0483 276.878 87.9168 276.878Z" fill="#E1E2E9"/>
<path d="M107.578 310.1C106.066 307.835 104.882 305.268 104.027 302.549C103.896 302.247 104.027 301.87 104.356 301.643L109.485 298.472C109.682 298.397 109.88 298.321 110.011 298.472C110.208 298.548 110.34 298.774 110.34 298.925C110.932 301.568 112.05 303.984 113.628 305.947C113.759 306.098 113.825 306.325 113.759 306.551C113.694 306.778 113.628 306.929 113.43 307.08L108.301 310.251C108.104 310.477 107.775 310.402 107.578 310.1Z" fill="#F5F6FA"/>
<path d="M107.907 309.798C107.973 309.873 108.038 309.873 108.17 309.873L113.299 306.702C113.365 306.702 113.365 306.627 113.365 306.551C113.365 306.476 113.365 306.4 113.299 306.325C111.721 304.211 110.537 301.794 109.945 299.076C109.945 299.001 109.88 298.925 109.814 298.925C109.748 298.925 109.682 298.925 109.682 298.925L104.553 302.096C104.488 302.172 104.422 302.247 104.488 302.323C105.277 305.041 106.46 307.533 107.907 309.798Z" fill="white"/>
<path d="M109.814 303.002L106.986 304.437C106.789 304.513 106.526 304.437 106.394 304.211L106.329 304.06C106.263 303.833 106.329 303.531 106.526 303.38L109.354 301.945C109.551 301.87 109.814 301.945 109.945 302.172L110.011 302.323C110.143 302.625 110.077 302.927 109.814 303.002Z" fill="#F5F6FA"/>
<path d="M110.866 305.192L108.038 306.627C107.841 306.702 107.578 306.627 107.447 306.4L107.381 306.249C107.315 306.023 107.381 305.721 107.578 305.57L110.406 304.135C110.603 304.06 110.866 304.135 110.998 304.362L111.063 304.513C111.195 304.815 111.063 305.117 110.866 305.192Z" fill="#F5F6FA"/>
<path d="M104.29 303.38C103.567 302.851 103.37 301.719 103.83 300.888C103.896 300.813 103.962 300.737 104.027 300.662L102.844 281.408L106.263 281.785L106.329 300.662C106.921 301.417 106.921 302.549 106.263 303.229C105.671 303.758 104.882 303.833 104.29 303.38Z" fill="#A0616A"/>
<path d="M103.567 287.826C103.435 287.675 103.304 287.448 103.304 287.222L103.041 282.012C102.975 280.879 103.764 279.898 104.751 279.822C105.605 279.747 106.395 280.426 106.592 281.332L107.71 286.014C107.775 286.391 107.578 286.844 107.249 286.92L104.159 287.901C103.896 288.052 103.699 287.977 103.567 287.826Z" fill="#403D56"/>
<path d="M97.7803 327.089H95.9392L95.0843 319.161H97.7803V327.089Z" fill="#A0616A"/>
<path d="M94.2953 326.485H98.175V328.976H92.5199V328.523C92.5199 327.391 93.3089 326.485 94.2953 326.485Z" fill="#2F2F41"/>
<path d="M104.488 327.089H102.712L101.857 319.161H104.488V327.089Z" fill="#A0616A"/>
<path d="M101.003 326.485H104.882V328.976H99.2271V328.523C99.2271 327.391 100.016 326.485 101.003 326.485Z" fill="#2F2F41"/>
<path d="M97.6488 323.087L95.6761 323.011C95.3473 323.011 95.0186 322.634 95.0186 322.256C94.4925 313.045 93.7692 303.078 94.887 299.303C94.887 298.85 95.1501 298.548 95.5446 298.548C95.6104 298.548 95.6104 298.548 95.6761 298.548L103.567 299.831C103.896 299.907 104.159 300.209 104.159 300.586C105.145 305.117 105.211 313.347 105.145 321.879C105.145 322.332 104.882 322.634 104.488 322.634H102.383C102.055 322.634 101.792 322.332 101.726 322.03L100.411 312.441C100.345 312.139 100.082 311.912 99.8188 311.988C99.6215 312.063 99.4243 312.214 99.3585 312.516L98.3064 322.558C98.3064 322.785 98.0434 323.087 97.6488 323.087C97.7146 323.087 97.6488 323.087 97.6488 323.087Z" fill="#2F2F41"/>
<path d="M99.0298 300.586C97.8462 299.831 96.5968 299.303 95.2816 299.076C95.0844 299.076 94.9528 298.925 94.8213 298.774C94.6898 298.623 94.6898 298.397 94.6898 298.17L96.5968 282.012C96.794 280.124 97.9119 278.463 99.4243 277.633C100.937 276.878 102.646 277.029 104.027 278.01C104.093 278.086 104.159 278.086 104.225 278.161C105.803 279.52 106.526 281.785 106.066 283.975C104.882 289.411 104.488 298.397 104.422 300.133C104.422 300.435 104.225 300.737 103.962 300.813C103.238 301.115 102.515 301.266 101.726 301.266C100.871 301.341 99.8846 301.115 99.0298 300.586Z" fill="#403D56"/>
<path d="M100.674 275.519C102.671 275.519 104.29 273.659 104.29 271.366C104.29 269.072 102.671 267.213 100.674 267.213C98.6763 267.213 97.057 269.072 97.057 271.366C97.057 273.659 98.6763 275.519 100.674 275.519Z" fill="#A0616A"/>
<path d="M103.172 274.613C102.712 275.141 101.989 275.217 101.529 274.688C101.331 274.461 101.2 274.159 101.134 273.857C101.134 273.782 101.134 273.706 101.134 273.631C101.265 273.178 101.331 272.649 101.397 272.121C101.397 271.97 101.331 271.894 101.265 271.743C100.739 270.913 99.4901 272.121 98.964 271.366C98.6352 270.913 99.0298 270.158 98.7667 269.705C98.438 269.025 97.5174 269.327 96.9255 269.025C96.268 268.648 96.3337 267.44 96.7283 266.76C97.3201 265.929 98.1749 265.401 99.0298 265.401C99.9504 265.401 100.805 265.552 101.66 266.005C102.646 266.382 103.501 267.062 104.159 267.968C104.816 269.176 105.014 270.686 104.553 272.121C104.356 273.027 103.83 273.933 103.172 274.613Z" fill="#2F2F41"/>
<path d="M106.066 278.69C106 278.312 105.474 277.859 104.685 277.482C102.186 276.274 99.2928 276.576 96.9913 278.237C96.8598 278.237 96.6625 278.388 96.6625 278.539L94.0323 291.752L93.7035 293.489L93.5062 294.621L93.1774 296.358L92.9801 297.264C92.9144 297.491 93.0459 297.717 93.2432 297.793C93.2432 297.793 93.2432 297.793 93.3089 297.793L104.553 298.925C104.751 298.925 104.882 298.774 104.948 298.548L105.079 296.66L105.211 294.697L105.277 293.866L105.408 291.903L106.066 278.69Z" fill="#1F64FF"/>
<path d="M87.5881 279.52C87.5881 279.596 87.5881 279.671 87.6539 279.822L93.9665 283.975L95.4789 282.994L97.1228 285.41L93.835 288.052L86.6675 281.559C85.8784 281.861 84.9578 281.408 84.6948 280.502C84.4318 279.596 84.8263 278.539 85.6154 278.237C86.4045 277.935 87.3251 278.388 87.5881 279.294C87.5881 279.369 87.5881 279.445 87.5881 279.52Z" fill="#A0616A"/>
<path d="M94.1638 283.598C94.1638 283.371 94.2295 283.145 94.3611 282.994L97.5831 279.294C98.3065 278.463 99.4243 278.463 100.148 279.294C100.739 279.973 100.871 281.106 100.411 281.936L98.1092 285.938C97.9119 286.316 97.5174 286.391 97.1886 286.165L94.4926 284.126C94.2953 283.975 94.1638 283.824 94.1638 283.598Z" fill="#403D56"/>
<path d="M105.277 291.752L105.211 293.791L93.7035 293.489L94.0322 291.752H105.277Z" fill="#F5F6FA"/>
<path d="M105.145 294.621L105.014 296.66L93.1116 296.358L93.4404 294.621H105.145Z" fill="#F5F6FA"/>
<path d="M100.739 263.362C98.175 263.362 96.1365 265.703 96.0708 268.572H95.2159C95.0844 268.572 94.9529 268.723 94.9529 268.874V270.233C94.9529 270.384 95.0844 270.535 95.2159 270.535H105.211C105.342 270.535 105.474 270.384 105.474 270.233V268.723C105.408 265.778 103.304 263.362 100.739 263.362Z" fill="#1F64FF"/>
<path d="M127.108 318.104H126.122C126.122 317.952 124.741 314.328 124.741 314.328L123.952 312.063L123.426 310.553L122.636 308.288L121.716 305.645C121.65 305.343 121.387 305.192 121.124 305.268C120.927 305.343 120.795 305.494 120.795 305.645L119.875 308.288L119.086 310.553L118.56 312.063L117.77 314.328C117.77 314.328 116.39 317.952 116.39 318.104H115.403C114.877 318.104 114.417 318.632 114.417 319.236C114.417 319.84 114.877 320.369 115.403 320.369H127.239C127.766 320.369 128.226 319.84 128.226 319.236C128.226 318.632 127.634 318.104 127.108 318.104Z" fill="#EB6484"/>
<path d="M126.45 337.735H126.056C126.122 337.659 124.346 332.525 124.346 332.525L123.294 329.656L122.571 327.693L121.519 324.823L120.401 321.652C120.335 321.275 120.006 321.048 119.677 321.124C119.48 321.199 119.283 321.35 119.217 321.652L118.099 324.823L117.047 327.693L116.324 329.656L115.272 332.525C115.272 332.525 113.562 337.584 113.562 337.735H113.167C112.641 337.735 112.181 338.263 112.181 338.867C112.181 339.471 112.641 340 113.167 340H126.319C126.845 340 127.305 339.471 127.305 338.867C127.305 338.263 126.976 337.735 126.45 337.735Z" fill="#EB6484"/>
<path d="M123.36 310.553H118.954L119.809 308.288H122.571L123.36 310.553Z" fill="#F1F1F1"/>
<path d="M124.741 314.328H117.639L118.428 312.063H123.952L124.741 314.328Z" fill="#F1F1F1"/>
<path d="M122.636 327.693H117.113L118.165 324.823H121.584L122.636 327.693Z" fill="#F1F1F1"/>
<path d="M124.346 332.525H115.403L116.455 329.656H123.294L124.346 332.525Z" fill="#F1F1F1"/>
<path d="M600.557 299.378C600.557 292.205 605.62 286.392 611.867 286.467C618.114 286.467 623.112 292.281 623.112 299.378" fill="#F5F6FA"/>
<path d="M611.867 299.378C611.67 299.378 611.538 299.227 611.538 299.001V292.205C611.538 291.979 611.67 291.828 611.867 291.828C612.065 291.828 612.196 291.979 612.196 292.205V299.001C612.13 299.227 611.999 299.378 611.867 299.378Z" fill="#000022"/>
<path d="M611.867 297.038C611.802 297.038 611.736 297.038 611.67 296.962L607.988 293.338C607.856 293.187 607.856 292.961 607.922 292.81C607.988 292.659 608.251 292.659 608.382 292.734L612.065 296.358C612.196 296.509 612.196 296.736 612.065 296.887C611.999 296.962 611.933 297.038 611.867 297.038Z" fill="#000022"/>
<path d="M635.343 299.378C635.343 292.205 640.406 286.392 646.653 286.467C652.9 286.467 657.897 292.281 657.897 299.378" fill="#F5F6FA"/>
<path d="M646.653 299.378C646.456 299.378 646.324 299.227 646.324 299.001V292.205C646.324 291.979 646.456 291.828 646.653 291.828C646.85 291.828 646.982 291.979 646.982 292.205V299.001C646.916 299.227 646.784 299.378 646.653 299.378Z" fill="#000022"/>
<path d="M646.652 297.038C646.587 297.038 646.521 297.038 646.455 296.962L642.773 293.338C642.641 293.187 642.641 292.961 642.707 292.81C642.773 292.659 643.036 292.659 643.167 292.734L646.85 296.358C646.981 296.509 646.981 296.736 646.85 296.887C646.784 296.962 646.718 297.038 646.652 297.038Z" fill="#000022"/>
</g>
<defs>
<clipPath id="clip0_219_1014">
<rect width="689" height="340" fill="white"/>
</clipPath>
</defs>
</svg>
